:FULLY-SPECIFIED
:FORCE-ALL-JOINTS-BE-3DOF
:DEGREES
170
root 6.46786 16.0534 -25.6401 4.2378 29.4007 1.52255
lfemur -25.6119 30.8381 -16.4983
ltibia 40.5967 0 0
lfoot -7.88224 9.94974 0
ltoes 15.6526 0 0
rfemur -18.1692 -2.5622 -7.06296
rtibia 57.9762 0 0
rfoot 6.39014 -26.547 0
rtoes 45.8389 0 0
lowerback 0.79455 -4.91849 -1.12451
upperback -0.12968 -6.54525 -2.55847
thorax -0.753047 -3.26953 -1.89445
lowerneck -9.47038 -7.36984 -1.56106
upperneck 1.86149 -9.90357 5.27617
head 2.62377 -4.7694 1.44085
lclavicle -9.98774e-14 2.63672e-15 0
lhumerus -50.4113 -41.7877 116.29
lradius 52.6276 0 0
lwrist 15.8123 0 0
lhand 37.8911 29.272 0
lfingers 7.12502 0 0
lthumb 60.6461 42.5247 0
rclavicle -9.98774e-14 2.63672e-15 0
rhumerus -48.2738 -11.5114 -79.1332
rradius 90.7883 0 0
rwrist -5.09051 0 0
rhand -39.8597 -50.9198 0
rfingers 7.12502 0 0
rthumb -12.8647 -439.425 0
171
root 6.38369 16.02 -25.6022 4.66202 28.7371 1.63552
lfemur -24.7041 29.4052 -15.4531
ltibia 39.063 0 0
lfoot -7.99632 8.6673 0
ltoes 17.8991 0 0
rfemur -15.7849 -1.97619 -8.71558
rtibia 55.0906 0 0
rfoot 4.25459 -26.9078 0
rtoes 48.7301 0 0
lowerback 0.104582 -4.79581 -0.888665
upperback -0.287382 -6.33715 -2.79121
thorax -0.580462 -3.16703 -2.32003
lowerneck -9.55664 -7.2866 -1.41035
upperneck 2.0257 -9.82259 5.256
head 2.68811 -4.72394 1.41155
lclavicle -9.92767e-14 1.99965e-15 0
lhumerus -51.1087 -42.0987 116.88
lradius 52.9239 0 0
lwrist 16.2329 0 0
lhand 38.5826 29.9672 0
lfingers 7.12502 0 0
lthumb 61.2515 42.6975 0
rclavicle -9.92767e-14 1.99965e-15 0
rhumerus -48.298 -7.95942 -78.7397
rradius 92.6364 0 0
rwrist -5.69148 0 0
rhand -36.133 -48.4833 0
rfingers 7.12502 0 0
rthumb -9.30888 -435.424 0
172
root 6.3066 15.9909 -25.5675 5.01489 28.0208 1.7549
lfemur -23.7169 27.8703 -14.4048
ltibia 37.4994 0 0
lfoot -8.14408 7.25516 0
ltoes 20.0854 0 0
rfemur -13.8732 -1.57625 -10.0595
rtibia 52.6155 0 0
rfoot 2.22413 -26.9422 0
rtoes 51.0669 0 0
lowerback -0.498219 -4.67879 -0.704594
upperback -0.415123 -6.14385 -3.01708
thorax -0.417031 -3.07153 -2.70217
lowerneck -9.66619 -7.17621 -1.27066
upperneck 2.17779 -9.70383 5.24051
head 2.75086 -4.65951 1.38762
lclavicle -9.70476e-14 1.28427e-15 0
lhumerus -51.6773 -42.3276 117.286
lradius 53.171 0 0
lwrist 16.5847 0 0
lhand 39.1851 30.5418 0
lfingers 7.12502 0 0
lthumb 61.7765 42.8 0
rclavicle -9.70476e-14 1.28427e-15 0
rhumerus -48.4945 -4.19434 -78.41
rradius 94.6719 0 0
rwrist -6.29363 0 0
rhand -32.1165 -45.8413 0
rfingers 7.12502 0 0
rthumb -5.47596 -430.619 0
173
root 6.23581 15.9655 -25.5358 5.30281 27.2531 1.88026
lfemur -22.6557 26.2427 -13.3544
ltibia 35.9089 0 0
lfoot -8.32832 5.72873 0
ltoes 22.215 0 0
rfemur -12.3992 -1.35012 -11.1194
rtibia 50.52 0 0
rfoot 0.289733 -26.6717 0
rtoes 52.8979 0 0
lowerback -1.02028 -4.56663 -0.567825
upperback -0.515465 -5.96371 -3.23672
thorax -0.262497 -2.98225 -3.0446
lowerneck -9.79639 -7.03987 -1.13946
upperneck 2.31856 -9.54919 5.22846
head 2.81194 -4.57709 1.36813
lclavicle -9.33436e-14 5.05531e-16 0
lhumerus -52.1299 -42.4828 117.524
lradius 53.3734 0 0
lwrist 16.8757 0 0
lhand 39.7042 31.0051 0
lfingers 7.12502 0 0
lthumb 62.2263 42.839 0
rclavicle -9.33436e-14 5.05531e-16 0
rhumerus -48.8342 -0.263049 -78.1227
rradius 96.8595 0 0
rwrist -6.89833 0 0
rhand -27.8645 -43.0324 0
rfingers 7.12502 0 0
rthumb -1.41777 -425.17 0
174
root 6.17054 15.9434 -25.507 5.53221 26.4355 2.01116
lfemur -21.526 24.5321 -12.3028
ltibia 34.2944 0 0
lfoot -8.55185 4.10338 0
ltoes 24.2909 0 0
rfemur -11.3282 -1.28557 -11.92
rtibia 48.7731 0 0
rfoot -1.55763 -26.1181 0
rtoes 54.2717 0 0
lowerback -1.46803 -4.45851 -0.473882
upperback -0.590971 -5.79512 -3.45077
thorax -0.116602 -2.89843 -3.35106
lowerneck -9.94463 -6.87881 -1.01419
upperneck 2.44884 -9.36052 5.21859
head 2.87127 -4.47766 1.35215
lclavicle -8.83178e-14 -3.21633e-16 0
lhumerus -52.4792 -42.5724 117.611
lradius 53.5356 0 0
lwrist 17.1137 0 0
lhand 40.1457 31.3665 0
lfingers 7.12502 0 0
lthumb 62.6061 42.8212 0
rclavicle -8.83178e-14 -3.21633e-16 0
rhumerus -49.2878 3.78755 -77.8565
rradius 99.1638 0 0
rwrist -7.50698 0 0
rhand -23.431 -40.0949 0
rfingers 7.12502 0 0
rthumb 2.81385 -419.235 0
175
root 6.11 15.9239 -25.4809 5.70948 25.5691 2.14717
lfemur -20.3331 22.7479 -11.2509
ltibia 32.6585 0 0
lfoot -8.81749 2.39453 0
ltoes 26.3165 0 0
rfemur -10.6251 -1.37033 -12.4859
rtibia 47.3441 0 0
rfoot -3.32696 -25.3031 0
rtoes 55.237 0 0
lowerback -1.8479 -4.35362 -0.41829
upperback -0.644203 -5.63642 -3.65988
thorax 0.0209115 -2.81929 -3.62529
lowerneck -10.1083 -6.69422 -0.892311
upperneck 2.56943 -9.13971 5.20964
head 2.92878 -4.36218 1.33873
lclavicle -8.21236e-14 -1.18228e-15 0
lhumerus -52.7378 -42.6048 117.566
lradius 53.662 0 0
lwrist 17.3066 0 0
lhand 40.5152 31.6352 0
lfingers 7.12502 0 0
lthumb 62.9212 42.7537 0
rclavicle -8.21236e-14 -1.18228e-15 0
rhumerus -49.8262 7.91054 -77.5901
rradius 101.55 0 0
rwrist -8.12094 0 0
rhand -18.8705 -37.067 0
rfingers 7.12502 0 0
rthumb 7.16711 -412.97 0
176
root 6.05341 15.9065 -25.4572 5.84104 24.6554 2.28787
lfemur -19.0823 20.8996 -10.1996
ltibia 31.0044 0 0
lfoot -9.12803 0.617553 0
ltoes 28.295 0 0
rfemur -10.2551 -1.59216 -12.8419
rtibia 46.2019 0 0
rfoot -5.0273 -24.2483 0
rtoes 55.8425 0 0
lowerback -2.16631 -4.25115 -0.396575
upperback -0.677722 -5.48599 -3.86468
thorax 0.1503 -2.74404 -3.87102
lowerneck -10.2847 -6.48732 -0.771274
upperneck 2.68116 -8.88862 5.20037
head 2.98439 -4.23162 1.32696
lclavicle -7.49142e-14 -2.06148e-15 0
lhumerus -52.9186 -42.5881 117.404
lradius 53.7569 0 0
lwrist 17.4622 0 0
lhand 40.8183 31.8206 0
lfingers 7.12502 0 0
lthumb 63.1767 42.6434 0
rclavicle -7.49142e-14 -2.06148e-15 0
rhumerus -50.4203 12.059 -77.3021
rradius 103.982 0 0
rwrist -8.7416 0 0
rhand -14.2371 -33.9872 0
rfingers 7.12502 0 0
rthumb 11.5902 -406.535 0
177
root 5.99999 15.8907 -25.436 5.9333 23.6956 2.43282
lfemur -17.7792 18.9967 -9.14985
ltibia 29.3348 0 0
lfoot -9.48628 -1.21215 0
ltoes 30.2297 0 0
rfemur -10.1834 -1.9388 -13.0127
rtibia 45.3156 0 0
rfoot -6.66765 -22.9754 0
rtoes 56.1367 0 0
lowerback -2.4297 -4.15028 -0.404261
upperback -0.69409 -5.3422 -4.06582
thorax 0.271821 -2.67193 -4.09198
lowerneck -10.4713 -6.25931 -0.648533
upperneck 2.78484 -8.60914 5.18953
head 3.03801 -4.08698 1.31588
lclavicle -6.6843e-14 -2.94428e-15 0
lhumerus -53.0341 -42.5307 117.142
lradius 53.8249 0 0
lwrist 17.5884 0 0
lhand 41.0607 31.9319 0
lfingers 7.12502 0 0
lthumb 63.378 42.497 0
rclavicle -6.6843e-14 -2.94428e-15 0
rhumerus -51.0408 16.1861 -76.9712
rradius 106.425 0 0
rwrist -9.37033 0 0
rhand -9.58493 -30.8937 0
rfingers 7.12502 0 0
rthumb 16.0313 -400.088 0
178
root 5.94896 15.8758 -25.4168 5.99267 22.6911 2.58159
lfemur -16.4292 17.0487 -8.10255
ltibia 27.6525 0 0
lfoot -9.89505 -3.07917 0
ltoes 32.1238 0 0
rfemur -10.375 -2.398 -13.0229
rtibia 44.6545 0 0
rfoot -8.25704 -21.5062 0
rtoes 56.1684 0 0
lowerback -2.64448 -4.0502 -0.436873
upperback -0.69587 -5.20342 -4.26394
thorax 0.385731 -2.60217 -4.29191
lowerneck -10.6655 -6.0114 -0.521541
upperneck 2.88128 -8.30314 5.17585
head 3.08957 -3.9292 1.30458
lclavicle -5.80632e-14 -3.81574e-15 0
lhumerus -53.0971 -42.4407 116.798
lradius 53.8704 0 0
lwrist 17.6931 0 0
lhand 41.2482 31.9785 0
lfingers 7.12502 0 0
lthumb 63.5303 42.3215 0
rclavicle -5.80632e-14 -3.81574e-15 0
rhumerus -51.6587 20.2448 -76.5762
rradius 108.843 0 0
rwrist -10.0085 0 0
rhand -4.96835 -27.825 0
rfingers 7.12502 0 0
rthumb 20.4385 -393.787 0
179
root 5.89952 15.8613 -25.3997 6.02557 21.6432 2.73375
lfemur -15.0375 15.0651 -7.05862
ltibia 25.9605 0 0
lfoot -10.3572 -4.96814 0
ltoes 33.9805 0 0
rfemur -10.795 -2.95752 -12.8973
rtibia 44.1876 0 0
rfoot -9.80449 -19.8622 0
rtoes 55.9862 0 0
lowerback -2.81708 -3.95011 -0.489936
upperback -0.685623 -5.068 -4.45969
thorax 0.492288 -2.53398 -4.47454
lowerneck -10.8646 -5.7448 -0.38775
upperneck 2.97131 -7.9725 5.1581
head 3.139 -3.75928 1.29212
lclavicle -4.87282e-14 -4.66094e-15 0
lhumerus -53.1204 -42.3265 116.389
lradius 53.8979 0 0
lwrist 17.7841 0 0
lhand 41.3863 31.9696 0
lfingers 7.12502 0 0
lthumb 63.6388 42.1237 0
rclavicle -4.87282e-14 -4.66094e-15 0
rhumerus -52.2447 24.1882 -76.0956
rradius 111.202 0 0
rwrist -10.6575 0 0
rhand -0.441535 -24.8194 0
rfingers 7.12502 0 0
rthumb 24.7602 -387.789 0
